<svg viewBox="0 0 44 32">
    <g>
        <path d="M13.72 12.8c10.13-4.57 18.98-1.81 23.71.5.45.21.98-.01 1.13-.48l1.39-4.15a1.02 1.02 0 0 0-.52-1.24c-5.84-2.85-19.7-7.4-35 3.37-.4.28-.54.8-.34 1.25l3.23 7.26c.22.5.78.73 1.28.55 3.7-1.36 9.28-2.78 15.08-1.94a26.5 26.5 0 0 0-9.5 3.53c-.43.27-.6.8-.4 1.27l1.99 4.55c.17.4.7.5 1 .18.75-.79 1.57-1.36 2.24-1.75 3.13-1.81 7.45-3.16 13.3-2.85.46.02.88-.26 1.02-.7l1.48-4.43c.15-.44-.02-.93-.42-1.18-4.34-2.74-11.02-5.03-20.7-3.73h.03z" />
    </g>
</svg>
